# xmcd CD database file generated by Grip 3.2.0
# 
# Track frame offsets:
#       150
#       51663
#       117986
#       160434
#       194332
#       222564
# 
# Disc length: 3623 seconds
# 
# Revision: 1
# Processed by: cddbd v1.5.2PL0 Copyright (c) Steve Scherf et al.
# Submitted via: Grip 3.2.0
# 
DISCID=600e2506
DTITLE=Falk, Rainer - Wassermusik. Ganz für mich
DYEAR=1997
DGENRE=Meditative
TTITLE0=Der Regen
TTITLE1=Die Erde
TTITLE2=Die Quelle
TTITLE3=Der Fluß
TTITLE4=Das Meer
TTITLE5=Die Wolke
EXTD=
EXTT0=
EXTT1=
EXTT2=
EXTT3=
EXTT4=
EXTT5=
PLAYORDER=
